<svg id="visual" viewBox="0 0 900 600" width="900" height="600" xmlns="http://www.w3.org/2000/svg" xmlns:xlink="http://www.w3.org/1999/xlink" version="1.1"><path d="M638 600L620 600L620 300L611 300L611 0L900 0L900 300L900 300L900 600L900 600Z" fill="#141414"></path><path d="M530 600L512 600L512 300L503 300L503 0L612 0L612 300L621 300L621 600L639 600Z" fill="#1b1b1b"></path><path d="M413 600L395 600L395 300L386 300L386 0L504 0L504 300L513 300L513 600L531 600Z" fill="#212121"></path><path d="M242 600L251 600L251 300L242 300L242 0L387 0L387 300L396 300L396 600L414 600Z" fill="#272727"></path><path d="M0 600L0 600L0 300L0 300L0 0L243 0L243 300L252 300L252 600L243 600Z" fill="#2e2e2e"></path></svg>