<svg id="visual" viewBox="0 0 1500 5000" width="1500" height="5000"
    xmlns="http://www.w3.org/2000/svg"
    xmlns:xlink="http://www.w3.org/1999/xlink" version="1.1">
    <rect x="0" y="0" width="1500" height="5000" fill="#d9d9d9"></rect>
    <g fill="none" stroke="#cfcfcf" stroke-width="20">
        <circle r="108" cx="1337" cy="2967"></circle>
        <circle r="53" cx="501" cy="1227"></circle>
        <circle r="69" cx="447" cy="3938"></circle>
        <circle r="75" cx="731" cy="2690"></circle>
        <circle r="66" cx="1147" cy="1949"></circle>
        <circle r="106" cx="177" cy="1083"></circle>
        <circle r="54" cx="699" cy="345"></circle>
        <circle r="62" cx="358" cy="764"></circle>
        <circle r="70" cx="1031" cy="3296"></circle>
        <circle r="57" cx="502" cy="1963"></circle>
        <circle r="52" cx="839" cy="2946"></circle>
        <circle r="98" cx="1078" cy="593"></circle>
        <circle r="86" cx="1164" cy="2722"></circle>
        <circle r="63" cx="1005" cy="2163"></circle>
        <circle r="60" cx="615" cy="4177"></circle>
        <circle r="69" cx="1357" cy="3433"></circle>
        <circle r="63" cx="634" cy="3503"></circle>
        <circle r="66" cx="441" cy="471"></circle>
        <circle r="97" cx="228" cy="1893"></circle>
        <circle r="76" cx="281" cy="4534"></circle>
        <circle r="83" cx="539" cy="1473"></circle>
        <circle r="68" cx="1182" cy="843"></circle>
        <circle r="77" cx="401" cy="2967"></circle>
        <circle r="64" cx="795" cy="2341"></circle>
        <circle r="59" cx="429" cy="4835"></circle>
        <circle r="99" cx="977" cy="1153"></circle>
        <circle r="99" cx="969" cy="4854"></circle>
        <circle r="92" cx="278" cy="140"></circle>
        <circle r="74" cx="235" cy="1568"></circle>
        <circle r="90" cx="1214" cy="4235"></circle>
        <circle r="90" cx="358" cy="3329"></circle>
        <circle r="67" cx="653" cy="3760"></circle>
        <circle r="95" cx="647" cy="3173"></circle>
        <circle r="82" cx="1310" cy="1205"></circle>
        <circle r="56" cx="628" cy="617"></circle>
        <circle r="79" cx="160" cy="3434"></circle>
        <circle r="70" cx="119" cy="3855"></circle>
        <circle r="65" cx="868" cy="1660"></circle>
        <circle r="64" cx="1386" cy="228"></circle>
        <circle r="96" cx="1355" cy="2056"></circle>
        <circle r="82" cx="1055" cy="160"></circle>
        <circle r="76" cx="1044" cy="1510"></circle>
        <circle r="69" cx="1247" cy="4852"></circle>
        <circle r="60" cx="583" cy="2259"></circle>
        <circle r="97" cx="977" cy="2497"></circle>
        <circle r="56" cx="1033" cy="4110"></circle>
    </g>
</svg>