<svg viewBox="0 0 22 22" fill="none"
    xmlns="http://www.w3.org/2000/svg">
    <path d="M11 22C17.0751 22 22 17.0751 22 11C22 4.92487 17.0751 0 11 0C4.92487 0 0 4.92487 0 11C0 17.0751 4.92487 22 11 22Z" fill="#D9D9D9"/>
    <path d="M15 10.9999C15 12.0608 14.5786 13.0782 13.8284 13.8284C13.0783 14.5785 12.0609 14.9999 11 14.9999C9.93913 14.9999 8.92172 14.5785 8.17157 13.8284C7.42143 13.0782 7 12.0608 7 10.9999C7 9.93907 7.42143 8.92165 8.17157 8.17151C8.92172 7.42136 9.93913 6.99994 11 6.99994C12.0609 6.99994 13.0783 7.42136 13.8284 8.17151C14.5786 8.92165 15 9.93907 15 10.9999ZM15 10.9999C15 12.4728 15.8951 13.6666 17 13.6666C18.1049 13.6666 19 12.4728 19 10.9999C19 9.14909 18.3582 7.35552 17.184 5.92481C16.0099 4.4941 14.3759 3.51478 12.5607 3.15372C10.7454 2.79265 8.86106 3.07218 7.22877 3.94467C5.59648 4.81716 4.31722 6.22863 3.60894 7.93859C2.90067 9.64855 2.80721 11.5512 3.3445 13.3223C3.88178 15.0935 5.01656 16.6235 6.55548 17.6518C8.09441 18.68 9.94226 19.1429 11.7842 18.9615C13.6261 18.78 15.3482 17.9656 16.6569 16.6568M15 10.9999V7.6666" stroke="#141414" stroke-width="1.5" stroke-linecap="round"/>
</svg>
