<svg viewBox="0 0 22 22" fill="none"
    xmlns="http://www.w3.org/2000/svg">
    <path d="M11 22C17.0751 22 22 17.0751 22 11C22 4.92487 17.0751 0 11 0C4.92487 0 0 4.92487 0 11C0 17.0751 4.92487 22 11 22Z" fill="#D9D9D9"/>
    <path d="M11 21C16.5228 21 21 16.5228 21 11C21 5.47715 16.5228 1 11 1C5.47715 1 1 5.47715 1 11C1 16.5228 5.47715 21 11 21Z" fill="#141414"/>
    <path d="M13.5 10.9999C13.5 11.663 13.2366 12.2989 12.7677 12.7677C12.2989 13.2366 11.6631 13.4999 11 13.4999C10.337 13.4999 9.70108 13.2366 9.23223 12.7677C8.76339 12.2989 8.5 11.663 8.5 10.9999C8.5 10.3369 8.76339 9.70102 9.23223 9.23219C9.70108 8.76335 10.337 8.49996 11 8.49996C11.6631 8.49996 12.2989 8.76335 12.7677 9.23219C13.2366 9.70102 13.5 10.3369 13.5 10.9999ZM13.5 10.9999C13.5 11.9205 14.0594 12.6666 14.75 12.6666C15.4406 12.6666 16 11.9205 16 10.9999C16 9.84317 15.5989 8.7222 14.865 7.828C14.1312 6.93381 13.1099 6.32174 11.9754 6.09607C10.8409 5.87041 9.66316 6.04511 8.64298 6.59042C7.6228 7.13572 6.82326 8.01789 6.38059 9.08661C5.93792 10.1553 5.87951 11.3445 6.21531 12.4514C6.55111 13.5584 7.26035 14.5147 8.22218 15.1574C9.18401 15.8 10.3389 16.0893 11.4901 15.9759C12.6413 15.8625 13.7176 15.3535 14.5356 14.5355M13.5 10.9999V8.91662" stroke="#D9D9D9" stroke-width="1.5" stroke-linecap="round"/>
</svg>
