<?xml version="1.0" standalone="no"?>
<!DOCTYPE svg PUBLIC "-//W3C//DTD SVG 20010904//EN"
 "http://www.w3.org/TR/2001/REC-SVG-20010904/DTD/svg10.dtd">
<svg version="1.0" xmlns="http://www.w3.org/2000/svg"
 width="736.000000pt" height="736.000000pt" viewBox="0 0 736.000000 736.000000"
 preserveAspectRatio="xMidYMid meet">
<metadata>
Created by potrace 1.14, written by Peter Selinger 2001-2017
</metadata>
<g transform="translate(0.000000,736.000000) scale(0.100000,-0.100000)"
fill="#000000" stroke="none">
<path d="M4350 6611 c-98 -32 -152 -95 -182 -211 -5 -19 -11 -42 -13 -50 -2
-8 -9 -31 -14 -50 -5 -19 -19 -71 -31 -115 -12 -44 -23 -87 -25 -95 -2 -8 -13
-49 -25 -90 -12 -41 -26 -92 -31 -113 -5 -21 -23 -86 -40 -145 -17 -59 -32
-114 -34 -122 -1 -8 -9 -35 -16 -60 -7 -25 -13 -50 -14 -55 -2 -6 -14 -53 -29
-105 -41 -149 -107 -393 -111 -410 -2 -8 -18 -64 -34 -125 -61 -218 -82 -295
-87 -317 -6 -28 -9 -38 -17 -58 -4 -12 -58 -212 -102 -380 -6 -22 -21 -76 -45
-160 -11 -41 -22 -82 -24 -90 -2 -8 -11 -40 -20 -71 -9 -31 -18 -65 -20 -75
-2 -11 -11 -46 -21 -79 -9 -33 -29 -107 -45 -165 -35 -130 -77 -283 -90 -330
-9 -31 -86 -313 -96 -350 -21 -80 -38 -144 -69 -255 -20 -71 -37 -137 -39
-146 -3 -8 -21 -74 -41 -145 -20 -71 -38 -136 -40 -144 -1 -8 -9 -35 -16 -60
-7 -25 -13 -50 -14 -55 -2 -6 -15 -56 -30 -110 -15 -55 -36 -131 -46 -170 -11
-38 -26 -92 -34 -120 -40 -142 -77 -283 -81 -304 -3 -14 -7 -28 -10 -33 -3 -4
-7 -16 -9 -25 -2 -10 -15 -62 -30 -116 -31 -115 -31 -174 1 -239 91 -183 356
-179 440 7 8 16 52 172 99 345 47 173 112 412 145 530 67 245 141 519 145 535
1 5 5 17 8 25 3 8 10 35 16 60 7 25 13 52 16 60 2 8 11 42 20 75 9 33 18 67
20 75 3 8 14 49 25 90 35 125 40 144 45 167 3 12 10 34 15 48 5 14 7 25 4 25
-4 0 -1 7 6 15 6 8 10 18 7 22 -3 4 0 19 6 33 11 28 14 36 20 66 5 21 42 157
133 489 30 110 73 268 96 350 22 83 51 189 65 236 13 47 25 95 28 105 5 25 34
136 39 149 2 6 4 13 5 17 1 4 13 47 27 95 14 49 26 95 28 103 2 8 11 42 21 75
25 92 35 129 39 145 6 24 32 118 56 200 11 41 22 82 24 90 2 14 14 63 21 85 1
6 3 13 4 17 1 4 11 38 22 75 11 38 21 77 24 88 3 11 19 70 35 130 17 61 33
117 35 125 2 8 15 58 30 110 30 107 44 158 50 180 2 8 4 17 5 20 1 3 2 8 1 12
0 4 4 19 9 33 5 14 12 36 14 48 3 12 21 78 41 147 19 69 37 141 39 160 2 19 6
40 7 45 5 18 -12 87 -29 114 -50 81 -111 120 -195 126 -34 3 -73 1 -87 -4z"/>
<path d="M1905 5630 c-16 -3 -43 -14 -60 -22 -16 -9 -428 -415 -915 -901 -695
-695 -890 -896 -908 -934 -28 -59 -26 -147 5 -207 23 -45 1757 -1785 1817
-1823 29 -19 55 -26 105 -28 36 -1 71 1 76 5 6 4 22 10 38 14 33 8 102 76 126
126 23 48 21 142 -6 200 -16 34 -203 228 -802 826 -429 430 -781 785 -781 789
0 5 349 357 775 784 426 427 784 788 795 803 24 31 40 106 34 160 -7 79 -70
165 -143 195 -41 18 -112 24 -156 13z"/>
<path d="M5340 5633 c-113 -40 -177 -117 -185 -223 -4 -51 9 -110 32 -145 7
-11 364 -371 793 -801 429 -430 780 -785 780 -789 0 -4 -347 -354 -770 -778
-709 -709 -833 -837 -814 -837 3 0 1 -7 -6 -15 -19 -23 -21 -118 -3 -170 18
-55 86 -125 140 -147 53 -20 149 -16 200 10 44 23 1813 1787 1813 1809 0 7 4
13 9 13 4 0 14 20 21 45 15 53 6 135 -19 184 -15 29 -1568 1593 -1757 1771
-38 35 -75 60 -95 65 -46 10 -121 14 -139 8z"/>
</g>
</svg>
